<mxfile host="app.diagrams.net" agent="Mozilla/5.0 (Windows NT 10.0; Win64; x64) AppleWebKit/537.36 (KHTML, like Gecko) Chrome/139.0.0.0 Safari/537.36 Edg/139.0.0.0" version="28.1.0">
  <diagram id="IoHqYJBpM_R_GjMDYoW6" name="Page-1">
    <mxGraphModel dx="2276" dy="1974" grid="1" gridSize="10" guides="1" tooltips="1" connect="1" arrows="1" fold="1" page="1" pageScale="1" pageWidth="850" pageHeight="1100" math="0" shadow="0">
      <root>
        <mxCell id="0" />
        <mxCell id="1" parent="0" />
        <mxCell id="VY_4OT78-StDgmwYUnyT-3" value="" style="rounded=0;orthogonalLoop=1;jettySize=auto;html=1;exitX=0.5;exitY=1;exitDx=0;exitDy=0;" parent="1" source="VY_4OT78-StDgmwYUnyT-1" target="VY_4OT78-StDgmwYUnyT-2" edge="1">
          <mxGeometry relative="1" as="geometry" />
        </mxCell>
        <mxCell id="VY_4OT78-StDgmwYUnyT-18" value="" style="rounded=0;orthogonalLoop=1;jettySize=auto;html=1;fontStyle=1;strokeWidth=3;endArrow=none;endFill=0;exitX=1;exitY=0;exitDx=0;exitDy=0;" parent="1" source="VY_4OT78-StDgmwYUnyT-1" target="VY_4OT78-StDgmwYUnyT-17" edge="1">
          <mxGeometry relative="1" as="geometry" />
        </mxCell>
        <mxCell id="VY_4OT78-StDgmwYUnyT-21" value="1" style="edgeLabel;html=1;align=center;verticalAlign=middle;resizable=0;points=[];" parent="VY_4OT78-StDgmwYUnyT-18" vertex="1" connectable="0">
          <mxGeometry x="0.0379" y="3" relative="1" as="geometry">
            <mxPoint as="offset" />
          </mxGeometry>
        </mxCell>
        <mxCell id="n2Vn5--788c1exNfuHuQ-5" value="" style="rounded=0;orthogonalLoop=1;jettySize=auto;html=1;endArrow=none;endFill=0;exitX=0;exitY=0;exitDx=0;exitDy=0;" edge="1" parent="1" source="VY_4OT78-StDgmwYUnyT-1" target="n2Vn5--788c1exNfuHuQ-4">
          <mxGeometry relative="1" as="geometry" />
        </mxCell>
        <mxCell id="n2Vn5--788c1exNfuHuQ-8" value="1" style="edgeLabel;html=1;align=center;verticalAlign=middle;resizable=0;points=[];" vertex="1" connectable="0" parent="n2Vn5--788c1exNfuHuQ-5">
          <mxGeometry x="-0.0107" y="-3" relative="1" as="geometry">
            <mxPoint as="offset" />
          </mxGeometry>
        </mxCell>
        <mxCell id="VY_4OT78-StDgmwYUnyT-1" value="ward" style="rounded=0;whiteSpace=wrap;html=1;" parent="1" vertex="1">
          <mxGeometry x="265" y="650" width="100" height="40" as="geometry" />
        </mxCell>
        <mxCell id="VY_4OT78-StDgmwYUnyT-2" value="&lt;u&gt;ward_id&lt;/u&gt;" style="ellipse;whiteSpace=wrap;html=1;" parent="1" vertex="1">
          <mxGeometry x="215" y="787.5" width="90" height="45" as="geometry" />
        </mxCell>
        <mxCell id="VY_4OT78-StDgmwYUnyT-5" value="" style="rounded=0;orthogonalLoop=1;jettySize=auto;html=1;exitX=0.5;exitY=1;exitDx=0;exitDy=0;" parent="1" source="VY_4OT78-StDgmwYUnyT-1" target="VY_4OT78-StDgmwYUnyT-6" edge="1">
          <mxGeometry relative="1" as="geometry">
            <mxPoint x="278" y="718" as="sourcePoint" />
            <mxPoint x="345" y="790" as="targetPoint" />
          </mxGeometry>
        </mxCell>
        <mxCell id="VY_4OT78-StDgmwYUnyT-6" value="Name" style="ellipse;whiteSpace=wrap;html=1;" parent="1" vertex="1">
          <mxGeometry x="345" y="790" width="80" height="40" as="geometry" />
        </mxCell>
        <mxCell id="VY_4OT78-StDgmwYUnyT-10" value="" style="rounded=0;orthogonalLoop=1;jettySize=auto;html=1;" parent="1" target="VY_4OT78-StDgmwYUnyT-12" edge="1">
          <mxGeometry relative="1" as="geometry">
            <mxPoint x="620" y="120" as="sourcePoint" />
          </mxGeometry>
        </mxCell>
        <mxCell id="VY_4OT78-StDgmwYUnyT-37" value="" style="rounded=0;orthogonalLoop=1;jettySize=auto;html=1;entryX=0.5;entryY=1;entryDx=0;entryDy=0;exitX=0.5;exitY=0;exitDx=0;exitDy=0;" parent="1" source="VY_4OT78-StDgmwYUnyT-11" target="VY_4OT78-StDgmwYUnyT-32" edge="1">
          <mxGeometry relative="1" as="geometry" />
        </mxCell>
        <mxCell id="VY_4OT78-StDgmwYUnyT-46" value="M" style="edgeLabel;html=1;align=center;verticalAlign=middle;resizable=0;points=[];" parent="VY_4OT78-StDgmwYUnyT-37" vertex="1" connectable="0">
          <mxGeometry x="0.0921" y="-2" relative="1" as="geometry">
            <mxPoint as="offset" />
          </mxGeometry>
        </mxCell>
        <mxCell id="VY_4OT78-StDgmwYUnyT-38" style="rounded=0;orthogonalLoop=1;jettySize=auto;html=1;entryX=0.5;entryY=1;entryDx=0;entryDy=0;exitX=0.5;exitY=0;exitDx=0;exitDy=0;" parent="1" source="VY_4OT78-StDgmwYUnyT-11" target="VY_4OT78-StDgmwYUnyT-39" edge="1">
          <mxGeometry relative="1" as="geometry">
            <mxPoint x="630" y="7.5" as="targetPoint" />
          </mxGeometry>
        </mxCell>
        <mxCell id="VY_4OT78-StDgmwYUnyT-47" value="N" style="edgeLabel;html=1;align=center;verticalAlign=middle;resizable=0;points=[];" parent="VY_4OT78-StDgmwYUnyT-38" vertex="1" connectable="0">
          <mxGeometry x="0.0176" y="-1" relative="1" as="geometry">
            <mxPoint as="offset" />
          </mxGeometry>
        </mxCell>
        <mxCell id="VY_4OT78-StDgmwYUnyT-11" value="patient" style="rounded=0;whiteSpace=wrap;html=1;" parent="1" vertex="1">
          <mxGeometry x="550" y="85.5" width="100" height="40" as="geometry" />
        </mxCell>
        <mxCell id="VY_4OT78-StDgmwYUnyT-12" value="Patient_id" style="ellipse;whiteSpace=wrap;html=1;fontStyle=4" parent="1" vertex="1">
          <mxGeometry x="730" y="30" width="90" height="45" as="geometry" />
        </mxCell>
        <mxCell id="VY_4OT78-StDgmwYUnyT-13" value="" style="rounded=0;orthogonalLoop=1;jettySize=auto;html=1;exitX=1;exitY=0.5;exitDx=0;exitDy=0;" parent="1" source="VY_4OT78-StDgmwYUnyT-11" target="VY_4OT78-StDgmwYUnyT-14" edge="1">
          <mxGeometry relative="1" as="geometry">
            <mxPoint x="513" y="163" as="sourcePoint" />
            <mxPoint x="580" y="235" as="targetPoint" />
          </mxGeometry>
        </mxCell>
        <mxCell id="VY_4OT78-StDgmwYUnyT-14" value="name" style="ellipse;whiteSpace=wrap;html=1;" parent="1" vertex="1">
          <mxGeometry x="730" y="137.5" width="80" height="40" as="geometry" />
        </mxCell>
        <mxCell id="VY_4OT78-StDgmwYUnyT-15" value="Date_Of_Birth" style="ellipse;whiteSpace=wrap;html=1;" parent="1" vertex="1">
          <mxGeometry x="720" y="97.5" width="80" height="40" as="geometry" />
        </mxCell>
        <mxCell id="VY_4OT78-StDgmwYUnyT-16" value="" style="rounded=0;orthogonalLoop=1;jettySize=auto;html=1;exitX=1;exitY=0.5;exitDx=0;exitDy=0;" parent="1" source="VY_4OT78-StDgmwYUnyT-11" target="VY_4OT78-StDgmwYUnyT-15" edge="1">
          <mxGeometry relative="1" as="geometry">
            <mxPoint x="630" y="155" as="sourcePoint" />
            <mxPoint x="670" y="234.5" as="targetPoint" />
          </mxGeometry>
        </mxCell>
        <mxCell id="VY_4OT78-StDgmwYUnyT-19" value="" style="edgeStyle=orthogonalEdgeStyle;rounded=0;orthogonalLoop=1;jettySize=auto;html=1;endArrow=none;endFill=0;" parent="1" source="VY_4OT78-StDgmwYUnyT-17" target="VY_4OT78-StDgmwYUnyT-11" edge="1">
          <mxGeometry relative="1" as="geometry" />
        </mxCell>
        <mxCell id="VY_4OT78-StDgmwYUnyT-20" value="M" style="edgeLabel;html=1;align=center;verticalAlign=middle;resizable=0;points=[];" parent="VY_4OT78-StDgmwYUnyT-19" vertex="1" connectable="0">
          <mxGeometry x="0.3513" y="3" relative="1" as="geometry">
            <mxPoint as="offset" />
          </mxGeometry>
        </mxCell>
        <mxCell id="VY_4OT78-StDgmwYUnyT-17" value="host" style="rhombus;whiteSpace=wrap;html=1;" parent="1" vertex="1">
          <mxGeometry x="560" y="395" width="80" height="80" as="geometry" />
        </mxCell>
        <mxCell id="VY_4OT78-StDgmwYUnyT-22" value="" style="rounded=0;orthogonalLoop=1;jettySize=auto;html=1;exitX=0.5;exitY=0;exitDx=0;exitDy=0;" parent="1" source="VY_4OT78-StDgmwYUnyT-27" target="VY_4OT78-StDgmwYUnyT-28" edge="1">
          <mxGeometry relative="1" as="geometry" />
        </mxCell>
        <mxCell id="VY_4OT78-StDgmwYUnyT-23" value="" style="rounded=0;orthogonalLoop=1;jettySize=auto;html=1;exitX=0.5;exitY=0;exitDx=0;exitDy=0;" parent="1" source="VY_4OT78-StDgmwYUnyT-27" target="VY_4OT78-StDgmwYUnyT-24" edge="1">
          <mxGeometry relative="1" as="geometry">
            <mxPoint x="553" y="-506.44" as="sourcePoint" />
            <mxPoint x="620" y="-434.44" as="targetPoint" />
          </mxGeometry>
        </mxCell>
        <mxCell id="VY_4OT78-StDgmwYUnyT-24" value="Name" style="ellipse;whiteSpace=wrap;html=1;" parent="1" vertex="1">
          <mxGeometry x="680" y="-434.44" width="80" height="40" as="geometry" />
        </mxCell>
        <mxCell id="VY_4OT78-StDgmwYUnyT-27" value="consultant" style="rounded=0;whiteSpace=wrap;html=1;" parent="1" vertex="1">
          <mxGeometry x="560" y="-311.94" width="120" height="50" as="geometry" />
        </mxCell>
        <mxCell id="VY_4OT78-StDgmwYUnyT-28" value="Consultant_id" style="ellipse;whiteSpace=wrap;html=1;fontStyle=4" parent="1" vertex="1">
          <mxGeometry x="490" y="-439.44" width="90" height="45" as="geometry" />
        </mxCell>
        <mxCell id="VY_4OT78-StDgmwYUnyT-34" value="" style="rounded=0;orthogonalLoop=1;jettySize=auto;html=1;strokeWidth=1;entryX=0.5;entryY=1;entryDx=0;entryDy=0;shape=link;" parent="1" source="VY_4OT78-StDgmwYUnyT-32" target="VY_4OT78-StDgmwYUnyT-27" edge="1">
          <mxGeometry relative="1" as="geometry" />
        </mxCell>
        <mxCell id="VY_4OT78-StDgmwYUnyT-35" value="1" style="edgeLabel;html=1;align=center;verticalAlign=middle;resizable=0;points=[];" parent="VY_4OT78-StDgmwYUnyT-34" vertex="1" connectable="0">
          <mxGeometry x="-0.4044" y="1" relative="1" as="geometry">
            <mxPoint as="offset" />
          </mxGeometry>
        </mxCell>
        <mxCell id="VY_4OT78-StDgmwYUnyT-32" value="assign" style="rhombus;whiteSpace=wrap;html=1;" parent="1" vertex="1">
          <mxGeometry x="480" y="-161.94" width="80" height="80" as="geometry" />
        </mxCell>
        <mxCell id="VY_4OT78-StDgmwYUnyT-40" style="rounded=0;orthogonalLoop=1;jettySize=auto;html=1;entryX=0.5;entryY=1;entryDx=0;entryDy=0;" parent="1" source="VY_4OT78-StDgmwYUnyT-39" target="VY_4OT78-StDgmwYUnyT-27" edge="1">
          <mxGeometry relative="1" as="geometry">
            <mxPoint x="630" y="-241.94" as="targetPoint" />
          </mxGeometry>
        </mxCell>
        <mxCell id="VY_4OT78-StDgmwYUnyT-45" value="M" style="edgeLabel;html=1;align=center;verticalAlign=middle;resizable=0;points=[];" parent="VY_4OT78-StDgmwYUnyT-40" vertex="1" connectable="0">
          <mxGeometry x="-0.0652" y="-1" relative="1" as="geometry">
            <mxPoint as="offset" />
          </mxGeometry>
        </mxCell>
        <mxCell id="VY_4OT78-StDgmwYUnyT-39" value="examine" style="rhombus;whiteSpace=wrap;html=1;" parent="1" vertex="1">
          <mxGeometry x="650" y="-156.94" width="70" height="70" as="geometry" />
        </mxCell>
        <mxCell id="VY_4OT78-StDgmwYUnyT-51" value="number" style="ellipse;whiteSpace=wrap;html=1;" parent="1" vertex="1">
          <mxGeometry x="-150" y="-79.44" width="80" height="40" as="geometry" />
        </mxCell>
        <mxCell id="VY_4OT78-StDgmwYUnyT-52" value="name" style="ellipse;whiteSpace=wrap;html=1;fontStyle=4" parent="1" vertex="1">
          <mxGeometry x="-250" y="-81.94" width="90" height="45" as="geometry" />
        </mxCell>
        <mxCell id="VY_4OT78-StDgmwYUnyT-60" value="" style="rounded=0;orthogonalLoop=1;jettySize=auto;html=1;strokeWidth=1;endArrow=none;endFill=0;exitX=0.5;exitY=1;exitDx=0;exitDy=0;" parent="1" source="VY_4OT78-StDgmwYUnyT-53" target="VY_4OT78-StDgmwYUnyT-59" edge="1">
          <mxGeometry relative="1" as="geometry" />
        </mxCell>
        <mxCell id="VY_4OT78-StDgmwYUnyT-62" value="1" style="edgeLabel;html=1;align=center;verticalAlign=middle;resizable=0;points=[];" parent="VY_4OT78-StDgmwYUnyT-60" vertex="1" connectable="0">
          <mxGeometry x="-0.2889" y="-1" relative="1" as="geometry">
            <mxPoint as="offset" />
          </mxGeometry>
        </mxCell>
        <mxCell id="VY_4OT78-StDgmwYUnyT-74" style="rounded=0;orthogonalLoop=1;jettySize=auto;html=1;entryX=0.5;entryY=0;entryDx=0;entryDy=0;endArrow=none;endFill=0;" parent="1" source="VY_4OT78-StDgmwYUnyT-53" target="VY_4OT78-StDgmwYUnyT-75" edge="1">
          <mxGeometry relative="1" as="geometry">
            <mxPoint x="260" y="105.5" as="targetPoint" />
          </mxGeometry>
        </mxCell>
        <mxCell id="VY_4OT78-StDgmwYUnyT-89" value="M/N" style="edgeLabel;html=1;align=center;verticalAlign=middle;resizable=0;points=[];" parent="VY_4OT78-StDgmwYUnyT-74" vertex="1" connectable="0">
          <mxGeometry x="-0.7024" y="-4" relative="1" as="geometry">
            <mxPoint as="offset" />
          </mxGeometry>
        </mxCell>
        <mxCell id="VY_4OT78-StDgmwYUnyT-53" value="Nurse" style="rounded=0;whiteSpace=wrap;html=1;" parent="1" vertex="1">
          <mxGeometry x="-180" y="40.56" width="100" height="40" as="geometry" />
        </mxCell>
        <mxCell id="VY_4OT78-StDgmwYUnyT-54" value="" style="rounded=0;orthogonalLoop=1;jettySize=auto;html=1;exitX=0.5;exitY=0;exitDx=0;exitDy=0;" parent="1" source="VY_4OT78-StDgmwYUnyT-53" target="VY_4OT78-StDgmwYUnyT-51" edge="1">
          <mxGeometry relative="1" as="geometry">
            <mxPoint x="-187" y="-148.94" as="sourcePoint" />
            <mxPoint x="-120" y="-76.94" as="targetPoint" />
          </mxGeometry>
        </mxCell>
        <mxCell id="VY_4OT78-StDgmwYUnyT-55" value="" style="rounded=0;orthogonalLoop=1;jettySize=auto;html=1;exitX=0.5;exitY=0;exitDx=0;exitDy=0;" parent="1" source="VY_4OT78-StDgmwYUnyT-53" target="VY_4OT78-StDgmwYUnyT-52" edge="1">
          <mxGeometry relative="1" as="geometry" />
        </mxCell>
        <mxCell id="VY_4OT78-StDgmwYUnyT-57" value="" style="rounded=0;orthogonalLoop=1;jettySize=auto;html=1;entryX=0.5;entryY=1;entryDx=0;entryDy=0;exitX=0.5;exitY=0;exitDx=0;exitDy=0;" parent="1" source="VY_4OT78-StDgmwYUnyT-53" target="VY_4OT78-StDgmwYUnyT-58" edge="1">
          <mxGeometry relative="1" as="geometry">
            <mxPoint x="-120" y="45.56" as="sourcePoint" />
            <mxPoint x="-40" y="-44.44" as="targetPoint" />
          </mxGeometry>
        </mxCell>
        <mxCell id="VY_4OT78-StDgmwYUnyT-58" value="address" style="ellipse;whiteSpace=wrap;html=1;" parent="1" vertex="1">
          <mxGeometry x="-50" y="-79.44" width="80" height="40" as="geometry" />
        </mxCell>
        <mxCell id="VY_4OT78-StDgmwYUnyT-61" value="N" style="rounded=0;orthogonalLoop=1;jettySize=auto;html=1;endArrow=none;endFill=0;entryX=0;entryY=0;entryDx=0;entryDy=0;shape=link;" parent="1" source="VY_4OT78-StDgmwYUnyT-59" target="VY_4OT78-StDgmwYUnyT-1" edge="1">
          <mxGeometry relative="1" as="geometry">
            <mxPoint x="230" y="513" as="targetPoint" />
          </mxGeometry>
        </mxCell>
        <mxCell id="VY_4OT78-StDgmwYUnyT-59" value="supervise" style="rhombus;whiteSpace=wrap;html=1;rounded=0;" parent="1" vertex="1">
          <mxGeometry x="-180" y="450" width="80" height="80" as="geometry" />
        </mxCell>
        <mxCell id="VY_4OT78-StDgmwYUnyT-64" value="dosage" style="ellipse;whiteSpace=wrap;html=1;" parent="1" vertex="1">
          <mxGeometry x="287.5" y="-147.5" width="80" height="40" as="geometry" />
        </mxCell>
        <mxCell id="VY_4OT78-StDgmwYUnyT-65" value="drug" style="rounded=0;whiteSpace=wrap;html=1;" parent="1" vertex="1">
          <mxGeometry x="260" y="-27.5" width="100" height="40" as="geometry" />
        </mxCell>
        <mxCell id="VY_4OT78-StDgmwYUnyT-66" value="" style="rounded=0;orthogonalLoop=1;jettySize=auto;html=1;exitX=0.5;exitY=0;exitDx=0;exitDy=0;" parent="1" source="VY_4OT78-StDgmwYUnyT-65" target="VY_4OT78-StDgmwYUnyT-64" edge="1">
          <mxGeometry relative="1" as="geometry">
            <mxPoint x="250.5" y="-217" as="sourcePoint" />
            <mxPoint x="317.5" y="-145" as="targetPoint" />
          </mxGeometry>
        </mxCell>
        <mxCell id="VY_4OT78-StDgmwYUnyT-67" value="" style="rounded=0;orthogonalLoop=1;jettySize=auto;html=1;exitX=0.5;exitY=0;exitDx=0;exitDy=0;" parent="1" source="VY_4OT78-StDgmwYUnyT-65" target="VY_4OT78-StDgmwYUnyT-70" edge="1">
          <mxGeometry relative="1" as="geometry" />
        </mxCell>
        <mxCell id="VY_4OT78-StDgmwYUnyT-68" value="" style="rounded=0;orthogonalLoop=1;jettySize=auto;html=1;entryX=0.5;entryY=1;entryDx=0;entryDy=0;exitX=0.5;exitY=0;exitDx=0;exitDy=0;" parent="1" source="VY_4OT78-StDgmwYUnyT-65" target="VY_4OT78-StDgmwYUnyT-71" edge="1">
          <mxGeometry relative="1" as="geometry">
            <mxPoint x="317.5" y="-22.5" as="sourcePoint" />
            <mxPoint x="427.5" y="-107.5" as="targetPoint" />
          </mxGeometry>
        </mxCell>
        <mxCell id="VY_4OT78-StDgmwYUnyT-70" value="code_number" style="ellipse;whiteSpace=wrap;html=1;fontStyle=4" parent="1" vertex="1">
          <mxGeometry x="187.5" y="-150" width="90" height="45" as="geometry" />
        </mxCell>
        <mxCell id="VY_4OT78-StDgmwYUnyT-71" value="brand_name" style="ellipse;shape=doubleEllipse;margin=3;whiteSpace=wrap;html=1;align=center;" parent="1" vertex="1">
          <mxGeometry x="372.5" y="-150" width="100" height="40" as="geometry" />
        </mxCell>
        <mxCell id="VY_4OT78-StDgmwYUnyT-76" style="rounded=0;orthogonalLoop=1;jettySize=auto;html=1;entryX=0;entryY=0.5;entryDx=0;entryDy=0;endArrow=none;endFill=0;exitX=0.5;exitY=0;exitDx=0;exitDy=0;" parent="1" source="VY_4OT78-StDgmwYUnyT-75" target="VY_4OT78-StDgmwYUnyT-11" edge="1">
          <mxGeometry relative="1" as="geometry" />
        </mxCell>
        <mxCell id="VY_4OT78-StDgmwYUnyT-91" value="M/N" style="edgeLabel;html=1;align=center;verticalAlign=middle;resizable=0;points=[];" parent="VY_4OT78-StDgmwYUnyT-76" vertex="1" connectable="0">
          <mxGeometry x="-0.0559" y="1" relative="1" as="geometry">
            <mxPoint as="offset" />
          </mxGeometry>
        </mxCell>
        <mxCell id="VY_4OT78-StDgmwYUnyT-77" style="rounded=0;orthogonalLoop=1;jettySize=auto;html=1;entryX=0.5;entryY=1;entryDx=0;entryDy=0;endArrow=none;endFill=0;" parent="1" source="VY_4OT78-StDgmwYUnyT-75" target="VY_4OT78-StDgmwYUnyT-65" edge="1">
          <mxGeometry relative="1" as="geometry" />
        </mxCell>
        <mxCell id="VY_4OT78-StDgmwYUnyT-90" value="M/N" style="edgeLabel;html=1;align=center;verticalAlign=middle;resizable=0;points=[];" parent="VY_4OT78-StDgmwYUnyT-77" vertex="1" connectable="0">
          <mxGeometry x="0.3831" y="-2" relative="1" as="geometry">
            <mxPoint as="offset" />
          </mxGeometry>
        </mxCell>
        <mxCell id="VY_4OT78-StDgmwYUnyT-78" style="rounded=0;orthogonalLoop=1;jettySize=auto;html=1;entryX=0.5;entryY=0;entryDx=0;entryDy=0;exitX=0.5;exitY=1;exitDx=0;exitDy=0;endArrow=none;endFill=0;" parent="1" source="VY_4OT78-StDgmwYUnyT-75" target="VY_4OT78-StDgmwYUnyT-81" edge="1">
          <mxGeometry relative="1" as="geometry">
            <mxPoint x="280" y="284.5" as="targetPoint" />
          </mxGeometry>
        </mxCell>
        <mxCell id="VY_4OT78-StDgmwYUnyT-79" style="rounded=0;orthogonalLoop=1;jettySize=auto;html=1;entryX=0.5;entryY=0;entryDx=0;entryDy=0;exitX=0.5;exitY=1;exitDx=0;exitDy=0;endArrow=none;endFill=0;" parent="1" source="VY_4OT78-StDgmwYUnyT-75" target="VY_4OT78-StDgmwYUnyT-83" edge="1">
          <mxGeometry relative="1" as="geometry">
            <mxPoint x="400" y="314.5" as="targetPoint" />
            <mxPoint x="310" y="244.5" as="sourcePoint" />
          </mxGeometry>
        </mxCell>
        <mxCell id="VY_4OT78-StDgmwYUnyT-80" style="rounded=0;orthogonalLoop=1;jettySize=auto;html=1;entryX=0.5;entryY=0;entryDx=0;entryDy=0;endArrow=none;endFill=0;" parent="1" target="VY_4OT78-StDgmwYUnyT-82" edge="1">
          <mxGeometry relative="1" as="geometry">
            <mxPoint x="310" y="294.5" as="targetPoint" />
            <mxPoint x="310" y="244.5" as="sourcePoint" />
          </mxGeometry>
        </mxCell>
        <mxCell id="VY_4OT78-StDgmwYUnyT-75" value="Give" style="rhombus;whiteSpace=wrap;html=1;" parent="1" vertex="1">
          <mxGeometry x="270" y="160" width="80" height="80" as="geometry" />
        </mxCell>
        <mxCell id="VY_4OT78-StDgmwYUnyT-81" value="certain_date" style="ellipse;whiteSpace=wrap;html=1;" parent="1" vertex="1">
          <mxGeometry x="190" y="334.5" width="74" height="40" as="geometry" />
        </mxCell>
        <mxCell id="VY_4OT78-StDgmwYUnyT-82" value="dosage" style="ellipse;whiteSpace=wrap;html=1;" parent="1" vertex="1">
          <mxGeometry x="280.5" y="334.5" width="62" height="40" as="geometry" />
        </mxCell>
        <mxCell id="VY_4OT78-StDgmwYUnyT-83" value="time" style="ellipse;whiteSpace=wrap;html=1;" parent="1" vertex="1">
          <mxGeometry x="363.5" y="334.5" width="62" height="40" as="geometry" />
        </mxCell>
        <mxCell id="n2Vn5--788c1exNfuHuQ-6" style="rounded=0;orthogonalLoop=1;jettySize=auto;html=1;entryX=0.5;entryY=1;entryDx=0;entryDy=0;shape=link;" edge="1" parent="1" source="n2Vn5--788c1exNfuHuQ-4" target="VY_4OT78-StDgmwYUnyT-53">
          <mxGeometry relative="1" as="geometry" />
        </mxCell>
        <mxCell id="n2Vn5--788c1exNfuHuQ-9" value="N" style="edgeLabel;html=1;align=center;verticalAlign=middle;resizable=0;points=[];" vertex="1" connectable="0" parent="n2Vn5--788c1exNfuHuQ-6">
          <mxGeometry x="-0.495" y="2" relative="1" as="geometry">
            <mxPoint as="offset" />
          </mxGeometry>
        </mxCell>
        <mxCell id="n2Vn5--788c1exNfuHuQ-4" value="serve" style="rhombus;whiteSpace=wrap;html=1;rounded=0;" vertex="1" parent="1">
          <mxGeometry x="-60" y="350" width="80" height="80" as="geometry" />
        </mxCell>
      </root>
    </mxGraphModel>
  </diagram>
</mxfile>
